<?xml version="1.0" encoding="UTF-8" standalone="no"?>
<!DOCTYPE svg PUBLIC "-//W3C//DTD SVG 1.1//EN" "http://www.w3.org/Graphics/SVG/1.1/DTD/svg11.dtd" [
  <!ENTITY fill_color "#9999FF">
  <!ENTITY stroke_color "#5555FF">
]>
<svg
   xmlns:dc="http://purl.org/dc/elements/1.1/"
   xmlns:cc="http://creativecommons.org/ns#"
   xmlns:rdf="http://www.w3.org/1999/02/22-rdf-syntax-ns#"
   xmlns:svg="http://www.w3.org/2000/svg"
   xmlns="http://www.w3.org/2000/svg"
   version="1.1"
   width="55"
   height="55"
   viewBox="0 0 55 55"
   id="svg3042"
   xml:space="preserve"><metadata
     id="metadata3059"><rdf:RDF><cc:Work
         rdf:about=""><dc:format>image/svg+xml</dc:format><dc:type
           rdf:resource="http://purl.org/dc/dcmitype/StillImage" /><dc:title></dc:title></cc:Work></rdf:RDF></metadata><defs
     id="defs3057" /><g
     id="activity-helloworld"
     style="display:block"><path
       d="m 9.263,48.396 c 0.682,1.152 6.027,0.059 8.246,-1.463 2.102,-1.432 3.207,-2.596 4.336,-2.596 1.133,0 12.54,0.92 20.935,-5.715 C 50.005,32.915 52.553,24.834 47.3,17.185 42.048,9.541 33.468,8.105 26.422,8.625 16.806,9.342 4.224,16.91 4.677,28.313 c 0.264,6.711 3.357,9.143 4.922,10.703 1.562,1.566 4.545,1.566 2.992,5.588 -0.61,1.579 -3.838,2.918 -3.328,3.792 z"
       id="path3045"
       style="fill:&fill_color;;stroke:&stroke_color;;stroke-width:3.5;display:inline" /></g><g
     id="g3868"
     style="stroke-width:3;stroke-miterlimit:4;stroke-dasharray:none"><path
       d="m 20.400571,19.297816 c 15.884295,3.828097 1.401715,12.932835 16.266469,15.577307"
       id="path3061"
       style="fill:none;stroke:&stroke_color;;stroke-width:3;stroke-linecap:butt;stroke-linejoin:miter;stroke-miterlimit:4;stroke-opacity:1;stroke-dasharray:none" /><path
       d="M 17.988319,34.806197 C 33.872614,30.9781 23.111838,21.735518 37.976592,19.091046"
       id="path3061-9"
       style="fill:none;stroke:&stroke_color;;stroke-width:3;stroke-linecap:butt;stroke-linejoin:miter;stroke-miterlimit:4;stroke-opacity:1;stroke-dasharray:none" /></g></svg>
